<mxfile host="app.diagrams.net" modified="2021-07-09T06:42:06.311Z" agent="5.0 (Macintosh; Intel Mac OS X 10_15_7) AppleWebKit/537.36 (KHTML, like Gecko) Chrome/91.0.4472.114 Safari/537.36" etag="c_5vNre-UaMXx4fYdbNw" version="14.8.5" type="github">
  <diagram id="eITJXG-OyoUacg1WxQuX" name="第 1 页">
    <mxGraphModel dx="5824" dy="2047" grid="1" gridSize="10" guides="1" tooltips="1" connect="1" arrows="1" fold="1" page="1" pageScale="1" pageWidth="827" pageHeight="1169" math="0" shadow="0">
      <root>
        <mxCell id="0" />
        <mxCell id="1" style="locked=1;" parent="0" />
        <mxCell id="Dw4vFkzs2Ncmo0I6Yxj1-67" style="edgeStyle=orthogonalEdgeStyle;rounded=0;orthogonalLoop=1;jettySize=auto;html=1;exitX=1;exitY=0.5;exitDx=0;exitDy=0;entryX=0.5;entryY=0;entryDx=0;entryDy=0;curved=1;" edge="1" parent="1" source="Dw4vFkzs2Ncmo0I6Yxj1-65" target="Dw4vFkzs2Ncmo0I6Yxj1-66">
          <mxGeometry relative="1" as="geometry">
            <Array as="points">
              <mxPoint x="310" y="160" />
              <mxPoint x="310" y="100" />
              <mxPoint x="450" y="100" />
              <mxPoint x="450" y="110" />
              <mxPoint x="460" y="110" />
            </Array>
          </mxGeometry>
        </mxCell>
        <mxCell id="Dw4vFkzs2Ncmo0I6Yxj1-65" value="" style="rounded=1;whiteSpace=wrap;html=1;shadow=1;" vertex="1" parent="1">
          <mxGeometry x="90" y="130" width="120" height="60" as="geometry" />
        </mxCell>
        <mxCell id="Dw4vFkzs2Ncmo0I6Yxj1-66" value="" style="rounded=1;whiteSpace=wrap;html=1;" vertex="1" parent="1">
          <mxGeometry x="400" y="130" width="120" height="60" as="geometry" />
        </mxCell>
        <mxCell id="Dw4vFkzs2Ncmo0I6Yxj1-68" style="edgeStyle=orthogonalEdgeStyle;rounded=0;orthogonalLoop=1;jettySize=auto;html=1;exitX=1;exitY=0.5;exitDx=0;exitDy=0;curved=1;" edge="1" parent="1" source="Dw4vFkzs2Ncmo0I6Yxj1-69">
          <mxGeometry relative="1" as="geometry">
            <Array as="points">
              <mxPoint x="320" y="170" />
              <mxPoint x="320" y="110" />
              <mxPoint x="460" y="110" />
              <mxPoint x="460" y="120" />
              <mxPoint x="470" y="120" />
            </Array>
            <mxPoint x="570" y="980" as="targetPoint" />
          </mxGeometry>
        </mxCell>
        <mxCell id="Dw4vFkzs2Ncmo0I6Yxj1-69" value="" style="rounded=1;whiteSpace=wrap;html=1;shadow=1;" vertex="1" parent="1">
          <mxGeometry x="-1530" y="1190" width="120" height="60" as="geometry" />
        </mxCell>
        <mxCell id="Dw4vFkzs2Ncmo0I6Yxj1-70" value="" style="rounded=1;whiteSpace=wrap;html=1;" vertex="1" parent="1">
          <mxGeometry x="410" y="140" width="120" height="60" as="geometry" />
        </mxCell>
        <mxCell id="Dw4vFkzs2Ncmo0I6Yxj1-71" value="未命名图层" style="locked=1;" parent="0" />
        <mxCell id="Dw4vFkzs2Ncmo0I6Yxj1-72" value="" style="rounded=1;whiteSpace=wrap;html=1;shadow=1;" vertex="1" parent="Dw4vFkzs2Ncmo0I6Yxj1-71">
          <mxGeometry x="590" y="630" width="120" height="60" as="geometry" />
        </mxCell>
      </root>
    </mxGraphModel>
  </diagram>
</mxfile>
